<svg width="67" height="54" viewBox="0 0 67 54" fill="none" xmlns="http://www.w3.org/2000/svg">
<path d="M0 16.4531C0 15.6094 0.209375 14.8711 0.628125 14.2383L8.47969 2.32031C9.42187 0.949219 10.9922 0 12.6672 0H54.2281C55.9031 0 57.4734 0.949219 58.4156 2.32031L66.2672 14.2383C66.6859 14.8711 67 15.6094 67 16.4531C67 18.5625 65.2203 20.25 63.1266 20.25H3.76875C1.675 20.25 0 18.5625 0 16.4531ZM6.7 23.625H13.4V40.5H33.5V23.625H40.2V48.9375C40.2 51.7852 37.8969 54 35.175 54H11.725C8.89844 54 6.7 51.7852 6.7 48.9375V23.625ZM53.6 23.625H60.3V50.625C60.3 52.5234 58.7297 54 56.95 54C55.0656 54 53.6 52.5234 53.6 50.625V23.625Z" fill="black"/>
</svg>
